<svg xmlns="http://www.w3.org/2000/svg" width="37.442" height="49.157" viewBox="0 0 37.442 49.157">
  <g id="Group_248" data-name="Group 248" transform="translate(-2279.367 -229.078)">
    <g id="Group_245" data-name="Group 245">
      <rect id="Rectangle_51" data-name="Rectangle 51" width="1" height="40" transform="translate(2283.763 229.785) rotate(-45)" fill="#fff"/>
      <rect id="Rectangle_52" data-name="Rectangle 52" width="40" height="1" transform="translate(2283.763 257.363) rotate(-45)" fill="#fff"/>
    </g>
    <g id="Group_247" data-name="Group 247">
      <g id="Group_246" data-name="Group 246">
        <path id="Path_4160" data-name="Path 4160" d="M2286.066,275.55v1.943a5.07,5.07,0,0,1-2.519.742,4.289,4.289,0,0,1-4.18-4.16,4.189,4.189,0,0,1,1.25-3.11,4.28,4.28,0,0,1,3.135-1.235,5.226,5.226,0,0,1,2.314.586v1.894a4.524,4.524,0,0,0-2.421-.82,2.614,2.614,0,0,0-1.846.742,2.309,2.309,0,0,0-.791,1.738,2.611,2.611,0,0,0,.742,1.89,2.425,2.425,0,0,0,1.816.766A4.56,4.56,0,0,0,2286.066,275.55Z" fill="#fff"/>
        <path id="Path_4161" data-name="Path 4161" d="M2287.951,265.335h1.7v12.676h-1.7Z" fill="#fff"/>
        <path id="Path_4162" data-name="Path 4162" d="M2291.652,273.948a4.012,4.012,0,0,1,1.3-2.934,4.144,4.144,0,0,1,2.993-1.284,4.217,4.217,0,0,1,3.037,1.264,4,4,0,0,1,1.3,2.954,4.143,4.143,0,0,1-1.274,2.994,4.013,4.013,0,0,1-2.945,1.293,4.29,4.29,0,0,1-3.1-1.279A4.062,4.062,0,0,1,2291.652,273.948Zm6.993.005a2.408,2.408,0,0,0-.782-1.785,2.571,2.571,0,0,0-1.855-.759,2.641,2.641,0,0,0-1.9.769,2.457,2.457,0,0,0-.795,1.834,2.38,2.38,0,0,0,.8,1.781,2.658,2.658,0,0,0,1.89.763,2.547,2.547,0,0,0,1.846-.782A2.486,2.486,0,0,0,2298.645,273.953Z" fill="#fff"/>
        <path id="Path_4163" data-name="Path 4163" d="M2306.965,270.911l-1.133,1a5.958,5.958,0,0,0-.762-.473,1.675,1.675,0,0,0-.761-.161q-1.037,0-1.036.761c0,.366.438.719,1.314,1.063a5.216,5.216,0,0,1,1.89,1.129,2.1,2.1,0,0,1,.576,1.483,2.332,2.332,0,0,1-.83,1.771,2.811,2.811,0,0,1-1.953.755,3.286,3.286,0,0,1-2.8-1.582l1.338-.644a2.1,2.1,0,0,0,1.465.683,1.516,1.516,0,0,0,.922-.288.821.821,0,0,0,.4-.669q0-.673-1.387-1.211a5.527,5.527,0,0,1-1.919-1.09,1.886,1.886,0,0,1-.532-1.362,2.136,2.136,0,0,1,.757-1.673,2.762,2.762,0,0,1,1.9-.669A4.2,4.2,0,0,1,2306.965,270.911Z" fill="#fff"/>
        <path id="Path_4164" data-name="Path 4164" d="M2316.809,274.31h-6.875a2.7,2.7,0,0,0,1.02,1.811,2.909,2.909,0,0,0,1.734.571,3,3,0,0,0,2.421-1.2l1.241.938a4.486,4.486,0,0,1-3.741,1.806,4.047,4.047,0,0,1-3.007-1.23,4.181,4.181,0,0,1-1.211-3.057,4.1,4.1,0,0,1,1.225-2.964,4.159,4.159,0,0,1,5.972.02A4.483,4.483,0,0,1,2316.809,274.31Zm-6.7-1.358h4.922a2.6,2.6,0,0,0-2.422-1.66A2.57,2.57,0,0,0,2310.109,272.952Z" fill="#fff"/>
      </g>
    </g>
  </g>
</svg>
