<svg xmlns="http://www.w3.org/2000/svg" width="204.111" height="27.674" viewBox="0 0 204.111 27.674">
  <g id="Group_261" data-name="Group 261" transform="translate(-1839.734 -588.579)">
    <path id="Path_4204" data-name="Path 4204" d="M1843.635,605.693c.269.15.3.3.149.54a4.938,4.938,0,0,0-.779,2.28c0,1.889,1.949,2.82,7.109,2.82a38.1,38.1,0,0,0,8.13-.871c.42-.089.57,0,.63.271a25.074,25.074,0,0,1,.48,2.939c.03.27-.15.391-.51.45a47.612,47.612,0,0,1-8.789.72c-6.93,0-10.321-2.159-10.321-6.059a7.925,7.925,0,0,1,1.59-4.29C1842.1,604.883,1842.854,605.273,1843.635,605.693Zm6.779-11.76c2.19,0,4.32-.119,6.24-.27.3-.03.42.09.45.33a17.532,17.532,0,0,1,.27,2.55c0,.42-.15.6-.51.63a17.474,17.474,0,0,0-7.349,2.97,1.283,1.283,0,0,1-.75.27,1.26,1.26,0,0,1-.63-.18,7.187,7.187,0,0,0-2.1-.96c1.561-1.02,2.88-1.86,3.93-2.49a18.315,18.315,0,0,1-2.19.09,35.893,35.893,0,0,1-5.519-.51c-.271-.06-.391-.18-.391-.54,0-.72.061-1.59.12-2.67A37.86,37.86,0,0,0,1850.414,593.933Zm8.16-3.329c.15-.121.27-.091.45.059a13.808,13.808,0,0,1,2.85,3.21.3.3,0,0,1-.09.48l-1.261.93a.312.312,0,0,1-.509-.09,14.905,14.905,0,0,0-3.03-3.48Zm2.67-1.951c.18-.12.27-.089.45.06a12.545,12.545,0,0,1,2.85,3.09.347.347,0,0,1-.09.54l-1.2.931a.308.308,0,0,1-.51-.091,14.232,14.232,0,0,0-3-3.45Z" fill="#fff"/>
    <path id="Path_4210" data-name="Path 4210" d="M2017.095,614.362c-.361-.27-.361-.389-.151-.629a12.335,12.335,0,0,0,3.031-4.411c.15-.3.21-.239.6-.089l1.83.75c.361.12.42.18.3.479a17.052,17.052,0,0,1-3.269,5.1.361.361,0,0,1-.27.179.654.654,0,0,1-.36-.179Zm3.96-15.869c-2.67,0-3.571.06-3.75.06-.3,0-.33-.03-.33-.33V596.3c0-.3.03-.33.33-.33.179,0,1.08.06,3.75.06h3.389a20.031,20.031,0,0,0-.929-2.19c-2.88,0-3.87.06-4.05.06-.33,0-.361-.03-.361-.36v-1.8c0-.3.031-.33.361-.33.18,0,1.17.06,4.08.06h4.919v-.21a10.75,10.75,0,0,0-.21-2.34c1.08,0,2.28.06,3.33.15.27.031.45.151.45.3a1.4,1.4,0,0,1-.18.569,4.149,4.149,0,0,0-.12,1.32v.21h5.31c2.91,0,3.9-.06,4.08-.06.3,0,.33.03.33.33v1.8c0,.33-.03.36-.33.36-.181,0-1.17-.06-4.11-.06h-.39a2.74,2.74,0,0,0-.27.51c-.18.39-.42,1.08-.72,1.68h3.72c2.669,0,3.57-.06,3.75-.06.33,0,.36.03.36.33v1.92c0,.3-.03.33-.36.33-.18,0-1.081-.06-3.75-.06Zm14.129,1.29c2.91,0,3.93-.06,4.14-.06.3,0,.33.03.33.33,0,.18-.06.84-.06,2.4v3.09c0,1.56.06,2.22.06,2.4,0,.3-.03.331-.33.331-.21,0-1.23-.06-4.14-.06h-9.959c-2.911,0-3.93.06-4.14.06-.3,0-.33-.03-.33-.331,0-.209.059-.839.059-2.4v-3.09c0-1.56-.059-2.19-.059-2.4,0-.3.029-.33.33-.33.21,0,1.229.06,4.14.06Zm-8.07,12.45c0,.629.12.959.481,1.109a19.047,19.047,0,0,0,6.509-.15c.51-.24.75-1.109.78-2.4a8.754,8.754,0,0,0,2.19.9c.75.21.75.21.66,1.02-.27,1.59-.78,2.46-1.53,2.851-1.11.54-2.85.69-5.97.69-2.61,0-4.29-.121-5.13-.511-.66-.36-1.11-.84-1.11-2.46v-1.889a17.105,17.105,0,0,0-.149-2.491c.989.031,2.16.091,3.059.21.39.061.54.151.54.271a.733.733,0,0,1-.15.45,2.511,2.511,0,0,0-.18,1.26Zm-3.21-10.44v1.29h12.57v-1.29Zm12.57,3.09H2023.9v1.35h12.57Zm-9.78-11.04a17.564,17.564,0,0,1,.84,2.19h4.95a16.851,16.851,0,0,0,.84-2.19Zm3.3,14.76c.33-.241.42-.241.691-.06a13.32,13.32,0,0,1,2.579,2.37c.18.239.18.3-.119.54l-1.351,1.139a.706.706,0,0,1-.39.211c-.12,0-.179-.061-.3-.211a17.147,17.147,0,0,0-2.37-2.52c-.33-.21-.3-.179.09-.509Zm9.09.27c.33-.21.39-.181.63.029a24.453,24.453,0,0,1,4.019,4.5c.181.27.151.361-.149.571l-1.86,1.229a.833.833,0,0,1-.39.18c-.09,0-.15-.089-.24-.239a18.919,18.919,0,0,0-3.69-4.8c-.24-.24-.21-.24.15-.481Z" fill="#fff"/>
  </g>
</svg>
