<svg xmlns="http://www.w3.org/2000/svg" width="560" height="225.9" viewBox="0 0 560 225.9" style="">
  <g id="Group_259" data-name="Group 259" transform="translate(-420 -427.05)">
    <g id="Group_258" data-name="Group 258">
      <g id="Group_257" data-name="Group 257">
        <g id="Group_159" data-name="Group 159">
          <g id="Group_155" data-name="Group 155">
            <path id="Path_4035" data-name="Path 4035" d="M465.665,565.154q0-3.177,3.179-3.179h12.717q11.655,0,11.656-12.716V534.07a2.5,2.5,0,0,0-2.825-2.826H467.784q-3.178,0-3.178-3.179t3.178-3.18H523.03q3.178,0,3.179,3.18t-3.179,3.179H510.879a2.5,2.5,0,0,0-2.826,2.826v15.189q0,19.074-26.492,19.075H468.844Q465.666,568.334,465.665,565.154Zm1.06-51.925q0-3.179,3.178-3.178H520.91q3.18,0,3.18,3.178t-3.18,3.179H469.9Q466.724,516.408,466.725,513.229Z" fill="#fff" class="tDREGAVe_0"></path>
            <path id="Path_4036" data-name="Path 4036" d="M539.519,513.229q0-3.179,3.179-3.178h50.865q3.18,0,3.18,3.178t-3.18,3.179H542.7Q539.518,516.408,539.519,513.229Zm0,51.925q0-3.177,3.179-3.179H569.19q12.717,0,12.717-11.656V536.19a2.5,2.5,0,0,0-2.826-2.826H542.7q-3.18,0-3.179-3.179t3.179-3.18H592.5q4.239,0,4.239,4.239v19.075q0,18.015-27.553,18.015H542.7Q539.518,568.334,539.519,565.154Z" fill="#fff" class="tDREGAVe_1"></path>
            <path id="Path_4037" data-name="Path 4037" d="M609.77,513.229q0-3.179,3.179-3.178h45.567q4.239,0,4.239,4.239v34.969a21.591,21.591,0,0,1-.848,6.218l8.124,8.76q2.049,2.331-.352,4.451-2.475,2.047-4.451-.354l-6.57-7.064q-6.291,7.062-22.4,7.064H612.949q-3.178,0-3.179-3.18t3.179-3.179h23.313q11.656,0,11.657-12.716V519.234a2.5,2.5,0,0,0-2.826-2.826H612.949Q609.771,516.408,609.77,513.229Z" fill="#fff" class="tDREGAVe_2"></path>
            <path id="Path_4038" data-name="Path 4038" d="M688.569,568.405q-4.237,0-4.238-4.239V514.29q0-4.239,4.238-4.239h48.817q4.239,0,4.239,4.239v49.876q0,4.239-4.239,4.239Zm38.22-49.1a2.5,2.5,0,0,0-2.826-2.826H701.992a2.5,2.5,0,0,0-2.825,2.826v39.844a2.5,2.5,0,0,0,2.825,2.826h21.971a2.5,2.5,0,0,0,2.826-2.826Z" fill="#fff" class="tDREGAVe_3"></path>
            <path id="Path_4039" data-name="Path 4039" d="M754.934,565.154q0-3.177,3.18-3.179h29.53q11.655,0,11.656-12.716V525.593a2.5,2.5,0,0,0-2.825-2.826H772.454a2.5,2.5,0,0,0-2.825,2.826V537.6q0,4.239-4.239,4.238h-6.359q-4.238,0-4.238-4.238V520.647q0-4.239,4.238-4.239h15.19a2.5,2.5,0,0,0,2.826-2.826V512.17q0-4.239,4.238-4.239h6.359q4.239,0,4.239,4.239v1.412a2.5,2.5,0,0,0,2.825,2.826H809.9q4.239,0,4.238,4.239v28.612q0,19.074-26.492,19.075h-29.53Q754.932,568.334,754.934,565.154Z" fill="#fff" class="tDREGAVe_4"></path>
            <path id="Path_4040" data-name="Path 4040" d="M830.13,561.975H854.5q11.658,0,11.657-12.716v-36.03q0-4.239,4.24-4.239h6.357q4.239,0,4.238,4.239v36.03q0,19.074-26.492,19.075H830.13q-3.18,0-3.18-3.18T830.13,561.975Zm-2.12-48.746q0-4.239,4.238-4.239h6.359q4.239,0,4.238,4.239V542.9q0,4.238-4.238,4.238h-6.359q-4.239,0-4.238-4.238Z" fill="#fff" class="tDREGAVe_5"></path>
            <path id="Path_4041" data-name="Path 4041" d="M891.7,523.191q0-2.826,2.755-2.825H930.48q3.672,0,3.674,3.743V560.35a2.186,2.186,0,0,0,2.472,2.474h3.038q2.824,0,2.826,2.684a2.5,2.5,0,0,1-2.826,2.826H893.531q-2.753,0-2.755-2.826,0-2.685,2.755-2.684h25.221a2.187,2.187,0,0,0,2.474-2.474V528.418a2.186,2.186,0,0,0-2.474-2.472h-24.3A2.435,2.435,0,0,1,891.7,523.191Z" fill="#fff" class="tDREGAVe_6"></path>
          </g>
          <g id="Group_156" data-name="Group 156">
            <path id="Path_4042" data-name="Path 4042" d="M818.381,433.945h10.666a8.381,8.381,0,0,1,5.565,1.8,7.265,7.265,0,0,1,2.718,5.828,7.6,7.6,0,0,1-5.284,7.573l6.333,12.126h-4.928L827.809,449.6h-5.286v11.676h-4.142Zm4.142,11.977h6.261a4.527,4.527,0,0,0,3.486-1.35,4.218,4.218,0,0,0,1.143-3,3.635,3.635,0,0,0-1.367-3.093,4.763,4.763,0,0,0-3.038-.843h-6.485Z" fill="#fff" class="tDREGAVe_7"></path>
            <path id="Path_4043" data-name="Path 4043" d="M844.317,451.526a16.935,16.935,0,0,1,.507-4.724,6.817,6.817,0,0,1,1.612-2.718,7.37,7.37,0,0,1,2.25-1.743,8.3,8.3,0,0,1,3.654-.768,8.5,8.5,0,0,1,3.73.768,7.006,7.006,0,0,1,2.173,1.743,6.124,6.124,0,0,1,1.651,2.718,18.277,18.277,0,0,1,.468,4.724,17.821,17.821,0,0,1-.468,4.686,6.667,6.667,0,0,1-1.651,2.793,6.112,6.112,0,0,1-.917.843,4.259,4.259,0,0,1-1.256.805,7.76,7.76,0,0,1-3.73.843,7.584,7.584,0,0,1-3.654-.843,7.388,7.388,0,0,1-2.25-1.648,7.477,7.477,0,0,1-1.612-2.793A16.513,16.513,0,0,1,844.317,451.526Zm12.128.037a17.359,17.359,0,0,0-.188-3.036,3.559,3.559,0,0,0-.769-1.611,2.853,2.853,0,0,0-1.273-1.032,4.221,4.221,0,0,0-1.875-.393,4.281,4.281,0,0,0-1.837.393,3.472,3.472,0,0,0-1.312,1.032,4.559,4.559,0,0,0-.731,1.611,14.38,14.38,0,0,0-.224,3,13.964,13.964,0,0,0,.224,2.961,4.957,4.957,0,0,0,.731,1.688,4.79,4.79,0,0,0,1.312.992,4.125,4.125,0,0,0,1.837.413,4.066,4.066,0,0,0,1.875-.413,3.679,3.679,0,0,0,1.273-.992,3.849,3.849,0,0,0,.769-1.688A16.282,16.282,0,0,0,856.445,451.563Z" fill="#fff" class="tDREGAVe_8"></path>
            <path id="Path_4044" data-name="Path 4044" d="M867.349,451.526a16.932,16.932,0,0,1,.507-4.724,6.827,6.827,0,0,1,1.612-2.718,7.369,7.369,0,0,1,2.25-1.743,8.3,8.3,0,0,1,3.655-.768,8.5,8.5,0,0,1,3.729.768,7.007,7.007,0,0,1,2.173,1.743,6.125,6.125,0,0,1,1.651,2.718,18.235,18.235,0,0,1,.468,4.724,17.78,17.78,0,0,1-.468,4.686,6.668,6.668,0,0,1-1.651,2.793,6.115,6.115,0,0,1-.917.843,4.259,4.259,0,0,1-1.256.805,7.759,7.759,0,0,1-3.729.843,7.585,7.585,0,0,1-3.655-.843,7.387,7.387,0,0,1-2.25-1.648,7.489,7.489,0,0,1-1.612-2.793A16.511,16.511,0,0,1,867.349,451.526Zm12.128.037a17.359,17.359,0,0,0-.188-3.036,3.568,3.568,0,0,0-.768-1.611,2.862,2.862,0,0,0-1.274-1.032,4.219,4.219,0,0,0-1.874-.393,4.282,4.282,0,0,0-1.838.393,3.472,3.472,0,0,0-1.312,1.032,4.559,4.559,0,0,0-.731,1.611,14.38,14.38,0,0,0-.224,3,13.964,13.964,0,0,0,.224,2.961,4.957,4.957,0,0,0,.731,1.688,4.789,4.789,0,0,0,1.312.992,4.127,4.127,0,0,0,1.838.413,4.065,4.065,0,0,0,1.874-.413,3.693,3.693,0,0,0,1.274-.992,3.858,3.858,0,0,0,.768-1.688A16.282,16.282,0,0,0,879.477,451.563Z" fill="#fff" class="tDREGAVe_9"></path>
            <path id="Path_4045" data-name="Path 4045" d="M891.955,444.8h-1.967v-2.981h1.967v-2.569a5.077,5.077,0,0,1,1.539-4.085,5.775,5.775,0,0,1,3.767-1.218h2.531v3.692H897.56q-1.759-.055-1.686,1.611v2.569h3.918V444.8h-3.918v16.474h-3.919Z" fill="#fff" class="tDREGAVe_10"></path>
            <path id="Path_4046" data-name="Path 4046" d="M923.867,437.637h-7.478v-3.692h19.117v3.692h-7.479v23.635h-4.16Z" fill="#fff" class="tDREGAVe_11"></path>
            <path id="Path_4047" data-name="Path 4047" d="M937.116,451.526a16.932,16.932,0,0,1,.507-4.724,6.814,6.814,0,0,1,1.611-2.718,7.369,7.369,0,0,1,2.25-1.743,8.3,8.3,0,0,1,3.655-.768,8.5,8.5,0,0,1,3.729.768,7.011,7.011,0,0,1,2.174,1.743,6.132,6.132,0,0,1,1.65,2.718,18.235,18.235,0,0,1,.468,4.724,17.78,17.78,0,0,1-.468,4.686,6.676,6.676,0,0,1-1.65,2.793,6.125,6.125,0,0,1-.918.843,4.261,4.261,0,0,1-1.256.805,7.759,7.759,0,0,1-3.729.843,7.585,7.585,0,0,1-3.655-.843,7.387,7.387,0,0,1-2.25-1.648,7.473,7.473,0,0,1-1.611-2.793A16.511,16.511,0,0,1,937.116,451.526Zm12.128.037a17.328,17.328,0,0,0-.189-3.036,3.567,3.567,0,0,0-.768-1.611,2.862,2.862,0,0,0-1.274-1.032,4.219,4.219,0,0,0-1.874-.393,4.281,4.281,0,0,0-1.837.393,3.468,3.468,0,0,0-1.313,1.032,4.559,4.559,0,0,0-.731,1.611,14.453,14.453,0,0,0-.224,3,14.034,14.034,0,0,0,.224,2.961,4.957,4.957,0,0,0,.731,1.688,4.78,4.78,0,0,0,1.313.992,4.125,4.125,0,0,0,1.837.413,4.065,4.065,0,0,0,1.874-.413,3.693,3.693,0,0,0,1.274-.992,3.858,3.858,0,0,0,.768-1.688A16.254,16.254,0,0,0,949.244,451.563Z" fill="#fff" class="tDREGAVe_12"></path>
            <path id="Path_4048" data-name="Path 4048" d="M961.1,441.817h3.916v2.024a6.741,6.741,0,0,1,5.025-2.268,6.054,6.054,0,0,1,5.228,2.549,5.121,5.121,0,0,1,1.107,2.419,30.838,30.838,0,0,1,.281,5.022,30.4,30.4,0,0,1-.281,4.948,5.387,5.387,0,0,1-1.107,2.456,5.831,5.831,0,0,1-2.118,1.8,6.76,6.76,0,0,1-3.11.731,5.434,5.434,0,0,1-2.681-.654,8.518,8.518,0,0,1-2.344-1.651v9.953H961.1Zm7.76,15.763a3.988,3.988,0,0,0,2.193-.525,3,3,0,0,0,1.141-1.387,7.147,7.147,0,0,0,.507-1.949q.039-1.05.038-2.156,0-1.161-.038-2.268a6.7,6.7,0,0,0-.507-1.949,2.768,2.768,0,0,0-1.141-1.387,4.366,4.366,0,0,0-2.193-.468,3.54,3.54,0,0,0-2.081.543,3.184,3.184,0,0,0-1.181,1.424,7.2,7.2,0,0,0-.47,1.912,21.3,21.3,0,0,0-.112,2.193,18.932,18.932,0,0,0,.112,2.061,7.257,7.257,0,0,0,.47,1.969,3.181,3.181,0,0,0,1.181,1.425A3.448,3.448,0,0,0,968.865,457.58Z" fill="#fff" class="tDREGAVe_13"></path>
          </g>
          <g id="Group_157" data-name="Group 157">
            <path id="Path_4049" data-name="Path 4049" d="M514.55,475V440.8H690.908v22.778h13.747V427.05H500.8v61.7h465.45v78.961H980V475Z" fill="#fff" class="tDREGAVe_14"></path>
            <path id="Path_4050" data-name="Path 4050" d="M885.45,605V639.2H709.092V616.424H695.344V652.95H899.2v-61.7H433.747V512.287H420V605Z" fill="#fff" class="tDREGAVe_15"></path>
          </g>
          <g id="Group_158" data-name="Group 158">
            <path id="Path_4051" data-name="Path 4051" d="M433,638.076q5.324-.075,5.4-3.8.039-3.054-3.561-3.672-1.65-.228-3.617-.507a8.931,8.931,0,0,1-5.361-2.606,7.247,7.247,0,0,1-1.893-5.06,7.475,7.475,0,0,1,2.381-5.773,9.293,9.293,0,0,1,6.541-2.213,15.365,15.365,0,0,1,8.865,2.832l-2.3,3.411a12.542,12.542,0,0,0-6.766-2.1,5.17,5.17,0,0,0-3.187.957,3.55,3.55,0,0,0-1.368,2.962,3.011,3.011,0,0,0,.918,2.136,5.268,5.268,0,0,0,2.943,1.35q1.125.188,3.074.432a8.511,8.511,0,0,1,5.679,2.755,7.75,7.75,0,0,1,1.818,5.1q-.207,7.835-9.6,7.947a15.492,15.492,0,0,1-10.44-3.748l2.717-3.112A11.992,11.992,0,0,0,433,638.076Z" fill="#fff" class="tDREGAVe_16"></path>
            <path id="Path_4052" data-name="Path 4052" d="M460.619,640.268h-.074a3.235,3.235,0,0,1-1.687,1.462,7.983,7.983,0,0,1-3.112.488,7.1,7.1,0,0,1-5.022-1.724,5.39,5.39,0,0,1-1.856-4.216,5.514,5.514,0,0,1,1.612-4.068,6.422,6.422,0,0,1,4.723-1.688h5.416V628.48q.039-2.566-3.991-2.493a7.107,7.107,0,0,0-2.306.3,2.819,2.819,0,0,0-1.387,1.2l-3.074-2.342a7.582,7.582,0,0,1,6.579-2.85,10.444,10.444,0,0,1,5.866,1.388q2.193,1.461,2.231,5.022v13.29h-3.918Zm0-6.521h-4.685q-3.412.076-3.374,2.342a2.081,2.081,0,0,0,.881,1.688,4.1,4.1,0,0,0,2.793.768,6.852,6.852,0,0,0,3.468-.581q.918-.619.917-2.812Z" fill="#fff" class="tDREGAVe_17"></path>
            <path id="Path_4053" data-name="Path 4053" d="M473.436,622.538h3.918v11.584a4.148,4.148,0,0,0,1.106,3.073,3.724,3.724,0,0,0,2.774,1.106,3.665,3.665,0,0,0,2.756-1.106,4.2,4.2,0,0,0,1.086-3.073V622.538h3.917v19.456h-3.917v-2.081H485a6.265,6.265,0,0,1-5.042,2.3,6.583,6.583,0,0,1-4.367-1.761,6.087,6.087,0,0,1-2.156-4.985Z" fill="#fff" class="tDREGAVe_18"></path>
            <path id="Path_4054" data-name="Path 4054" d="M497.893,622.538h3.917V624.6h.076a6.283,6.283,0,0,1,5.061-2.3A6.68,6.68,0,0,1,511.37,624a6.6,6.6,0,0,1,2.08,5.06v12.934h-3.917V630.41a4.173,4.173,0,0,0-1.087-3.111,3.693,3.693,0,0,0-2.756-1.086,3.752,3.752,0,0,0-2.773,1.086,4.126,4.126,0,0,0-1.107,3.111v11.584h-3.917Z" fill="#fff" class="tDREGAVe_19"></path>
            <path id="Path_4055" data-name="Path 4055" d="M532.564,640.268h-.075a3.227,3.227,0,0,1-1.687,1.462,7.977,7.977,0,0,1-3.111.488,7.1,7.1,0,0,1-5.023-1.724,5.39,5.39,0,0,1-1.856-4.216,5.518,5.518,0,0,1,1.612-4.068,6.422,6.422,0,0,1,4.723-1.688h5.417V628.48q.039-2.566-3.992-2.493a7.107,7.107,0,0,0-2.306.3,2.816,2.816,0,0,0-1.386,1.2l-3.075-2.342a7.585,7.585,0,0,1,6.579-2.85,10.446,10.446,0,0,1,5.867,1.388q2.193,1.461,2.23,5.022v13.29h-3.917Zm0-6.521h-4.686q-3.411.076-3.374,2.342a2.08,2.08,0,0,0,.882,1.688,4.094,4.094,0,0,0,2.792.768,6.85,6.85,0,0,0,3.468-.581q.918-.619.918-2.812Z" fill="#fff" class="tDREGAVe_20"></path>
          </g>
        </g>
      </g>
    </g>
  </g>
<style data-made-with="vivus-instant">.tDREGAVe_0{stroke-dasharray:366 368;stroke-dashoffset:367;animation:tDREGAVe_draw_0 7200ms linear 0ms infinite,tDREGAVe_fade 7200ms linear 0ms infinite;}.tDREGAVe_1{stroke-dasharray:384 386;stroke-dashoffset:385;animation:tDREGAVe_draw_1 7200ms linear 0ms infinite,tDREGAVe_fade 7200ms linear 0ms infinite;}.tDREGAVe_2{stroke-dasharray:304 306;stroke-dashoffset:305;animation:tDREGAVe_draw_2 7200ms linear 0ms infinite,tDREGAVe_fade 7200ms linear 0ms infinite;}.tDREGAVe_3{stroke-dasharray:368 370;stroke-dashoffset:369;animation:tDREGAVe_draw_3 7200ms linear 0ms infinite,tDREGAVe_fade 7200ms linear 0ms infinite;}.tDREGAVe_4{stroke-dasharray:338 340;stroke-dashoffset:339;animation:tDREGAVe_draw_4 7200ms linear 0ms infinite,tDREGAVe_fade 7200ms linear 0ms infinite;}.tDREGAVe_5{stroke-dasharray:308 310;stroke-dashoffset:309;animation:tDREGAVe_draw_5 7200ms linear 0ms infinite,tDREGAVe_fade 7200ms linear 0ms infinite;}.tDREGAVe_6{stroke-dasharray:249 251;stroke-dashoffset:250;animation:tDREGAVe_draw_6 7200ms linear 0ms infinite,tDREGAVe_fade 7200ms linear 0ms infinite;}.tDREGAVe_7{stroke-dasharray:149 151;stroke-dashoffset:150;animation:tDREGAVe_draw_7 7200ms linear 0ms infinite,tDREGAVe_fade 7200ms linear 0ms infinite;}.tDREGAVe_8{stroke-dasharray:92 94;stroke-dashoffset:93;animation:tDREGAVe_draw_8 7200ms linear 0ms infinite,tDREGAVe_fade 7200ms linear 0ms infinite;}.tDREGAVe_9{stroke-dasharray:92 94;stroke-dashoffset:93;animation:tDREGAVe_draw_9 7200ms linear 0ms infinite,tDREGAVe_fade 7200ms linear 0ms infinite;}.tDREGAVe_10{stroke-dasharray:80 82;stroke-dashoffset:81;animation:tDREGAVe_draw_10 7200ms linear 0ms infinite,tDREGAVe_fade 7200ms linear 0ms infinite;}.tDREGAVe_11{stroke-dasharray:93 95;stroke-dashoffset:94;animation:tDREGAVe_draw_11 7200ms linear 0ms infinite,tDREGAVe_fade 7200ms linear 0ms infinite;}.tDREGAVe_12{stroke-dasharray:92 94;stroke-dashoffset:93;animation:tDREGAVe_draw_12 7200ms linear 0ms infinite,tDREGAVe_fade 7200ms linear 0ms infinite;}.tDREGAVe_13{stroke-dasharray:120 122;stroke-dashoffset:121;animation:tDREGAVe_draw_13 7200ms linear 0ms infinite,tDREGAVe_fade 7200ms linear 0ms infinite;}.tDREGAVe_14{stroke-dasharray:1666 1668;stroke-dashoffset:1667;animation:tDREGAVe_draw_14 7200ms linear 0ms infinite,tDREGAVe_fade 7200ms linear 0ms infinite;}.tDREGAVe_15{stroke-dasharray:1666 1668;stroke-dashoffset:1667;animation:tDREGAVe_draw_15 7200ms linear 0ms infinite,tDREGAVe_fade 7200ms linear 0ms infinite;}.tDREGAVe_16{stroke-dasharray:129 131;stroke-dashoffset:130;animation:tDREGAVe_draw_16 7200ms linear 0ms infinite,tDREGAVe_fade 7200ms linear 0ms infinite;}.tDREGAVe_17{stroke-dasharray:107 109;stroke-dashoffset:108;animation:tDREGAVe_draw_17 7200ms linear 0ms infinite,tDREGAVe_fade 7200ms linear 0ms infinite;}.tDREGAVe_18{stroke-dasharray:99 101;stroke-dashoffset:100;animation:tDREGAVe_draw_18 7200ms linear 0ms infinite,tDREGAVe_fade 7200ms linear 0ms infinite;}.tDREGAVe_19{stroke-dasharray:99 101;stroke-dashoffset:100;animation:tDREGAVe_draw_19 7200ms linear 0ms infinite,tDREGAVe_fade 7200ms linear 0ms infinite;}.tDREGAVe_20{stroke-dasharray:107 109;stroke-dashoffset:108;animation:tDREGAVe_draw_20 7200ms linear 0ms infinite,tDREGAVe_fade 7200ms linear 0ms infinite;}@keyframes tDREGAVe_draw{100%{stroke-dashoffset:0;}}@keyframes tDREGAVe_fade{0%{stroke-opacity:1;}94.44444444444444%{stroke-opacity:1;}100%{stroke-opacity:0;}}@keyframes tDREGAVe_draw_0{11.11111111111111%{stroke-dashoffset: 367}13.318019274867304%{ stroke-dashoffset: 0;}100%{ stroke-dashoffset: 0;}}@keyframes tDREGAVe_draw_1{13.318019274867304%{stroke-dashoffset: 385}15.633168166001187%{ stroke-dashoffset: 0;}100%{ stroke-dashoffset: 0;}}@keyframes tDREGAVe_draw_2{15.633168166001187%{stroke-dashoffset: 305}17.467247157678678%{ stroke-dashoffset: 0;}100%{ stroke-dashoffset: 0;}}@keyframes tDREGAVe_draw_3{17.467247157678678%{stroke-dashoffset: 369}19.68618206892128%{ stroke-dashoffset: 0;}100%{ stroke-dashoffset: 0;}}@keyframes tDREGAVe_draw_4{19.68618206892128%{stroke-dashoffset: 339}21.72471576786774%{ stroke-dashoffset: 0;}100%{ stroke-dashoffset: 0;}}@keyframes tDREGAVe_draw_5{21.72471576786774%{stroke-dashoffset: 309}23.582848254518048%{ stroke-dashoffset: 0;}100%{ stroke-dashoffset: 0;}}@keyframes tDREGAVe_draw_6{23.582848254518048%{stroke-dashoffset: 250}25.08619169031927%{ stroke-dashoffset: 0;}100%{ stroke-dashoffset: 0;}}@keyframes tDREGAVe_draw_7{25.08619169031927%{stroke-dashoffset: 150}25.9881977518%{ stroke-dashoffset: 0;}100%{ stroke-dashoffset: 0;}}@keyframes tDREGAVe_draw_8{25.9881977518%{stroke-dashoffset: 93}26.54744150991806%{ stroke-dashoffset: 0;}100%{ stroke-dashoffset: 0;}}@keyframes tDREGAVe_draw_9{26.54744150991806%{stroke-dashoffset: 93}27.106685268036113%{ stroke-dashoffset: 0;}100%{ stroke-dashoffset: 0;}}@keyframes tDREGAVe_draw_10{27.106685268036113%{stroke-dashoffset: 81}27.593768541235708%{ stroke-dashoffset: 0;}100%{ stroke-dashoffset: 0;}}@keyframes tDREGAVe_draw_11{27.593768541235708%{stroke-dashoffset: 94}28.15902567309697%{ stroke-dashoffset: 0;}100%{ stroke-dashoffset: 0;}}@keyframes tDREGAVe_draw_12{28.159025673096966%{stroke-dashoffset: 93}28.71826943121502%{ stroke-dashoffset: 0;}100%{ stroke-dashoffset: 0;}}@keyframes tDREGAVe_draw_13{28.71826943121502%{stroke-dashoffset: 121}29.445887654142815%{ stroke-dashoffset: 0;}100%{ stroke-dashoffset: 0;}}@keyframes tDREGAVe_draw_14{29.445887654142815%{stroke-dashoffset: 1667}39.470181684065366%{ stroke-dashoffset: 0;}100%{ stroke-dashoffset: 0;}}@keyframes tDREGAVe_draw_15{39.470181684065366%{stroke-dashoffset: 1667}49.49447571398791%{ stroke-dashoffset: 0;}100%{ stroke-dashoffset: 0;}}@keyframes tDREGAVe_draw_16{49.49447571398791%{stroke-dashoffset: 130}50.27621430060455%{ stroke-dashoffset: 0;}100%{ stroke-dashoffset: 0;}}@keyframes tDREGAVe_draw_17{50.276214300604536%{stroke-dashoffset: 108}50.92565866487067%{ stroke-dashoffset: 0;}100%{ stroke-dashoffset: 0;}}@keyframes tDREGAVe_draw_18{50.92565866487067%{stroke-dashoffset: 100}51.52699603919116%{ stroke-dashoffset: 0;}100%{ stroke-dashoffset: 0;}}@keyframes tDREGAVe_draw_19{51.52699603919116%{stroke-dashoffset: 100}52.128333413511655%{ stroke-dashoffset: 0;}100%{ stroke-dashoffset: 0;}}@keyframes tDREGAVe_draw_20{52.128333413511655%{stroke-dashoffset: 108}52.77777777777778%{ stroke-dashoffset: 0;}100%{ stroke-dashoffset: 0;}}</style></svg>
